# xmcd
#
# Track frame offsets: 
#        150
#        16771
#        31045
#        45709
#        58822
#        70197
#        92719
#        105965
#        119344
#        134192
#
# Disc length: 1956 seconds
#
# Revision: 0
# Processed by: cddbd v1.5.2PL0 Copyright (c) Steve Scherf et al.
# Submitted via: ExactAudioCopy v1.0b1
#
DISCID=8107a20a
DTITLE=Vern Gosdin - Silver Eagle Cross Country (Live)
DYEAR=1997
DGENRE=Country
TTITLE0=Break My Mind
TTITLE1=Dream of Me
TTITLE2=Today My World Slipped Away
TTITLE3=Mother Country Music
TTITLE4=Don't Ever Leave Me
TTITLE5=The First Time Ever I Saw Your Face
TTITLE6=Till The End
TTITLE7=Friday Night Feeling
TTITLE8=If Your Gonna Do Me Wrong,do It Right-(1997)
TTITLE9=Way Down Deep
EXTD=
EXTT0=
EXTT1=
EXTT2=
EXTT3=
EXTT4=
EXTT5=
EXTT6=
EXTT7=
EXTT8=
EXTT9=
PLAYORDER=
